<svg width="187" height="173" viewBox="0 0 187 173" fill="none" xmlns="http://www.w3.org/2000/svg">
<path d="M169.867 3.7209L169.873 3.72841L169.879 3.73569C171.662 5.82663 172.594 7.76142 173.463 9.73502C173.827 10.5814 174.341 11.3269 174.821 12.0219C174.845 12.0567 174.869 12.0914 174.893 12.1259C175.404 12.8663 175.867 13.5556 176.161 14.3266L176.161 14.3267L176.164 14.3343C177.08 16.6234 177.223 19.1145 176.402 21.2825C176.019 22.2192 175.874 23.1263 175.773 23.9928C175.749 24.1964 175.728 24.396 175.707 24.5928C175.638 25.2507 175.571 25.878 175.424 26.5246L175.422 26.5352L175.42 26.546C175.339 26.9914 175.269 27.3174 175.129 27.5897C175 27.839 174.801 28.0628 174.415 28.2561C173.788 28.5693 173.448 29.1092 173.204 29.6069C173.119 29.7794 173.039 29.9646 172.963 30.1379C172.932 30.2096 172.901 30.2791 172.872 30.345C172.766 30.5817 172.664 30.7931 172.545 30.9799C170.923 33.5269 168.764 35.4523 166.062 36.7638L166.051 36.7689L166.041 36.7746C165.608 37.0106 165.154 37.247 164.696 37.486L164.693 37.4871C164.237 37.725 163.776 37.9654 163.334 38.2062L163.324 38.2119L163.314 38.218C162.505 38.7098 161.65 38.8426 160.732 38.8712C160.403 38.8815 160.08 38.8784 159.747 38.8753C159.607 38.874 159.465 38.8726 159.321 38.8722C158.844 38.871 158.35 38.8807 157.859 38.9445C156.664 39.0887 155.603 38.821 154.559 38.3659C153.882 38.0705 153.252 37.7179 152.598 37.3513C152.209 37.1336 151.812 36.911 151.39 36.6925C150.835 36.3916 150.265 36.3756 149.813 36.3658L149.791 36.3653C149.318 36.355 148.978 36.3477 148.656 36.2016C146.158 35.067 144.391 33.0143 142.815 30.6528L142.815 30.6528L142.812 30.6482C140.595 27.4038 138.871 24.0533 139.627 20.1286L139.627 20.1286L139.629 20.1181C140.251 16.4675 141.728 13.273 143.848 10.1351C145.19 8.18112 146.903 6.7717 148.767 5.52715C149.664 4.92803 150.589 4.37117 151.525 3.80784C151.564 3.78492 151.602 3.76199 151.64 3.73904C152.229 3.38452 152.822 3.02681 153.409 2.65627L154.285 2.46859C154.913 2.33416 155.495 2.22893 156.101 2.11921C156.581 2.03241 157.076 1.9428 157.622 1.8337L158.769 1.60438L158.392 1.34038C158.544 1.36184 158.705 1.37957 158.868 1.38571C159.509 1.40988 160.199 1.25486 160.835 0.570284L160.885 0.517097C161.654 0.552161 162.429 0.639934 163.189 0.772222C164.724 1.03912 166.171 1.48251 167.353 2.01438C168.549 2.55227 169.423 3.15787 169.867 3.7209ZM165.416 15.8115L165.92 15.6283L165.702 15.1383C165.611 14.9339 165.505 14.7458 165.41 14.5799C165.393 14.5512 165.377 14.5234 165.361 14.4963C165.282 14.36 165.214 14.2421 165.155 14.1236C165.016 13.8468 164.974 13.655 165.017 13.4617L165.152 12.8532H164.529C163.901 12.8532 163.262 12.9715 162.865 13.3842C162.414 13.8526 162.441 14.4998 162.716 15.141L162.727 15.1672L162.741 15.1921C162.993 15.6324 163.441 15.8738 163.908 15.9621C164.377 16.0507 164.907 15.9965 165.416 15.8115ZM168.515 7.27384L169.66 7.87597L169.217 6.6603C169.193 6.59402 169.169 6.52657 169.145 6.45826C168.868 5.68201 168.551 4.79461 167.651 4.25502L166.988 3.85741L166.898 4.62539L166.894 4.65314C166.857 4.96736 166.824 5.2472 166.826 5.48103C166.827 5.73654 166.869 5.99146 167.021 6.23292C167.165 6.46181 167.377 6.62685 167.608 6.77291C167.836 6.91664 168.134 7.07353 168.496 7.26399L168.515 7.27384ZM165.565 5.63545L166.223 5.8546V5.23918C166.233 5.21826 166.246 5.18908 166.258 5.15781C166.277 5.10685 166.302 5.02432 166.302 4.92246V4.56199L165.96 4.44808C165.717 4.36696 165.539 4.30528 165.363 4.18819L164.586 3.6705V4.52621C164.576 4.54713 164.562 4.57631 164.551 4.60758C164.531 4.65854 164.506 4.74107 164.506 4.84293V5.11064L164.729 5.25906C165.024 5.45549 165.317 5.55296 165.548 5.63003L165.565 5.63545Z" fill="#E3E4E5" stroke="#E3E4E5"/>
<path d="M11.6634 135.661C11.9223 135.459 12.0911 135.209 12.2166 134.97C12.2877 134.835 12.351 134.691 12.4052 134.567C12.4187 134.537 12.4317 134.507 12.4441 134.479C12.5111 134.329 12.5683 134.212 12.6335 134.114L12.6376 134.108L12.6415 134.102C13.1941 133.219 13.9096 132.556 14.7984 132.055C14.9302 131.989 15.0672 131.908 15.1849 131.839C15.2371 131.809 15.2855 131.78 15.3281 131.756C15.482 131.669 15.6194 131.602 15.7697 131.558C16.717 131.351 17.6885 131.501 18.7146 131.841C18.7167 131.843 18.719 131.845 18.7214 131.847L18.7337 131.86L18.7468 131.871C20.1073 133.052 21.1081 134.252 21.1614 135.955L21.1615 135.957C21.2199 137.592 21.0433 139.136 20.4188 140.61L20.4177 140.613C20.173 141.199 19.6729 141.668 19.0816 142.142C18.8311 142.303 18.5552 142.353 18.2903 142.227C17.9639 142.034 17.6138 141.876 17.2765 141.734C17.1546 141.682 17.0366 141.634 16.921 141.586C16.6992 141.495 16.4867 141.408 16.2739 141.311L16.25 141.3L16.2252 141.292C16.1792 141.277 16.1441 141.257 16.1237 141.241C16.1226 141.24 16.1215 141.239 16.1206 141.238C15.9929 140.717 15.7021 140.346 15.3723 140.059C15.1139 139.835 14.8062 139.645 14.5402 139.48C14.4739 139.439 14.4102 139.4 14.3505 139.362L14.3045 139.333C14.0103 138.891 13.6642 138.511 13.3489 138.164C13.3281 138.141 13.3075 138.119 13.287 138.096C12.9213 137.693 12.6016 137.331 12.3634 136.914C12.2423 136.647 12.0847 136.383 11.9414 136.143C11.9259 136.117 11.9105 136.092 11.8954 136.066C11.8122 135.927 11.7339 135.793 11.6634 135.661ZM17.128 135.411L17.6053 135.49L17.7003 135.016C17.7314 134.861 17.7675 134.637 17.7215 134.422C17.6962 134.304 17.6426 134.171 17.5353 134.055C17.4262 133.937 17.29 133.867 17.1507 133.832L17.1392 133.829L17.1276 133.827C16.5579 133.713 16.0885 134.07 15.774 134.384L15.1721 134.985L15.9902 135.218C16.3091 135.309 16.6117 135.346 16.857 135.375C16.958 135.387 17.0493 135.398 17.128 135.411Z" fill="#E3E4E5" stroke="#E3E4E5"/>
<path d="M5.36163 154.92L5.30199 154.905H5.24051C5.04737 154.905 4.85677 154.913 4.67578 154.922C4.64932 154.923 4.62312 154.924 4.59714 154.925C4.44212 154.933 4.29487 154.94 4.14741 154.943C3.81203 154.95 3.50752 154.935 3.21467 154.865C2.89229 154.755 2.69381 154.628 2.60891 154.499C2.53556 154.356 2.44962 154.225 2.37095 154.109C2.34274 154.068 2.31614 154.029 2.29061 153.992C2.23591 153.913 2.18614 153.841 2.13591 153.762C1.9995 153.548 1.91277 153.361 1.89043 153.153C1.87975 152.836 1.69792 152.628 1.51627 152.513C1.3899 152.432 1.23706 152.382 1.16088 152.358C0.885018 152.215 0.723855 152.056 0.630165 151.892C0.533 151.721 0.481582 151.495 0.506008 151.178L0.507484 151.159V151.14V151.138V151.137V151.136V151.134V151.133V151.131V151.13V151.129V151.127V151.126V151.124V151.123V151.122V151.12V151.119V151.117V151.116V151.114V151.113V151.112V151.11V151.109V151.107V151.106V151.105V151.103V151.102V151.1V151.099V151.098V151.096V151.095V151.093V151.092V151.091V151.089V151.088V151.086V151.085V151.084V151.082V151.081V151.079V151.078V151.076V151.075V151.074V151.072V151.071V151.069V151.068V151.067V151.065V151.064V151.062V151.061V151.06V151.058V151.057V151.055V151.054V151.053V151.051V151.05V151.048V151.047V151.045V151.044V151.043V151.041V151.04V151.038V151.037V151.036V151.034V151.033V151.031V151.03V151.029V151.027V151.026V151.024V151.023V151.022V151.02V151.019V151.017V151.016V151.015V151.013V151.012V151.01V151.009V151.007V151.006V151.005V151.003V151.002V151V150.999V150.998V150.996V150.995V150.993V150.992V150.991V150.989V150.988V150.986V150.985V150.984V150.982V150.981V150.979V150.978V150.976V150.975V150.974V150.972V150.971V150.969V150.968V150.967V150.965V150.964V150.962V150.961V150.96V150.958V150.957V150.955V150.954V150.953V150.951V150.95V150.948V150.947V150.946V150.944V150.943V150.941V150.94V150.938V150.937V150.936V150.934V150.933V150.931V150.93V150.929V150.927V150.926V150.924V150.923V150.922V150.92V150.919V150.917V150.916V150.915V150.913V150.912V150.91V150.909V150.908V150.906V150.905V150.903V150.902V150.9V150.899V150.898V150.896V150.895V150.893V150.892V150.891V150.889V150.888V150.886V150.885V150.884V150.882V150.881V150.879V150.878V150.877V150.875V150.874V150.872V150.871V150.869V150.868V150.867V150.865V150.864V150.862V150.861V150.86V150.858V150.857V150.855V150.854V150.853V150.851V150.85V150.848V150.847V150.846V150.844V150.843V150.841V150.84V150.839V150.837V150.836V150.834V150.833V150.831V150.83V150.829V150.827V150.826V150.824V150.823V150.822V150.82V150.819V150.817V150.816V150.815V150.813V150.812V150.81V150.809V150.808V150.806V150.805V150.803V150.802V150.8V150.799V150.798V150.796V150.795V150.793V150.792V150.791V150.789V150.788V150.786V150.785V150.784V150.782V150.781V150.779V150.778V150.777V150.775V150.774V150.772V150.771V150.77V150.768V150.767V150.765V150.764V150.762V150.761V150.76V150.758V150.757V150.755V150.754V150.753V150.751V150.75V150.748V150.747V150.746V150.744V150.743V150.741V150.74V150.739V150.737V150.736V150.734V150.733V150.732V150.73V150.729V150.727V150.726V150.724V150.723V150.722V150.72V150.719V150.717V150.716V150.715V150.713V150.712V150.71V150.709V150.708V150.706V150.705V150.703V150.702V150.701V150.699V150.698V150.696V150.695V150.693V150.692V150.691V150.689V150.688V150.686V150.685V150.684V150.682V150.681V150.679V150.678V150.677V150.675V150.674V150.672V150.671V150.67V150.668V150.667V150.665V150.664V150.663V150.661V150.66V150.658V150.657V150.655V150.654V150.653V150.651V150.65V150.648V150.647V150.646V150.644V150.643V150.641V150.64V150.639V150.637V150.636V150.634V150.633V150.632V150.63V150.629V150.627V150.626V150.624V150.623V150.622V150.62V150.619V150.617V150.616V150.615V150.613V150.612V150.61V150.609V150.608V150.606V150.605V150.603V150.602V150.601V150.599V150.598V150.596V150.595V150.594V150.592V150.591V150.589V150.588V150.586V150.585V150.584V150.582V150.581V150.579V150.578V150.577V150.575V150.574V150.572V150.571V150.57V150.568V150.567V150.565V150.564V150.563V150.561V150.56V150.558V150.557V150.556V150.554V150.553V150.551V150.55V150.548V150.547V150.546V150.544V150.543V150.541V150.54V150.539V150.537V150.536V150.534V150.533V150.532V150.53V150.529V150.527V150.526V150.525V150.523V150.522V150.52V150.519V150.517V150.516V150.515V150.513V150.512V150.51V150.509V150.508V150.506V150.505V150.503V150.502V150.501V150.499V150.498V150.496V150.495V150.494V150.492V150.491V150.489V150.488V150.487V150.485V150.484V150.482V150.481V150.479V150.478V150.477V150.475V150.474V150.472V150.471V150.47V150.468V150.467V150.465V150.464V150.463V150.461V150.46V150.458V150.457V150.456V150.454V150.453V150.451V150.45V150.448V150.447V150.446V150.444V150.443V150.441V150.44V150.439V150.437V150.436V150.434V150.433V150.432V150.43V150.429V150.427V150.426V150.425V150.423V150.422V150.42V150.419C0.507484 150.296 0.521195 150.241 0.533141 150.214C0.53935 150.2 0.553347 150.17 0.625397 150.127L0.62544 150.127L0.633147 150.122C1.26743 149.726 1.5597 149.104 1.69698 148.492C1.79203 148.117 1.96811 147.872 2.20939 147.711L2.22744 147.699L2.24439 147.686C3.12269 146.984 4.0031 146.397 4.88857 145.866C5.31221 145.633 5.61801 145.634 5.87786 145.815C5.90653 145.843 5.94797 145.881 5.99336 145.915C6.04199 145.952 6.14475 146.022 6.28789 146.045C7.54585 146.399 8.01605 147.403 8.36715 148.688L8.37563 148.719L8.38803 148.749C8.65799 149.396 8.77216 150.053 8.83066 150.799C8.82717 152.434 8.37552 153.955 7.46865 155.372C7.38325 155.499 7.32967 155.568 7.29235 155.606C7.29011 155.608 7.28804 155.61 7.28614 155.612C7.27894 155.612 7.26986 155.61 7.25867 155.608C7.19371 155.598 7.10389 155.574 6.95485 155.529C6.87032 155.501 6.78596 155.476 6.71142 155.454C6.70011 155.451 6.68901 155.447 6.67818 155.444C6.58989 155.418 6.51613 155.395 6.44877 155.371C6.31354 155.322 6.24125 155.278 6.19534 155.232C6.00825 155.045 5.80756 154.982 5.63975 154.956C5.58947 154.948 5.52969 154.943 5.49044 154.939C5.47942 154.938 5.47001 154.937 5.4629 154.936C5.4186 154.931 5.38872 154.927 5.36163 154.92Z" fill="#E3E4E5" stroke="#E3E4E5"/>
<path d="M24.9865 148.437L24.9913 148.428L24.9957 148.419C25.5212 147.37 26.1739 146.483 27.1484 146.073L27.1634 146.067L27.1779 146.06C27.8551 145.722 28.5406 145.752 29.3511 146.075C31.7738 147.099 32.4672 149.591 32.4096 151.606L32.4094 151.613V151.62C32.4094 152.118 32.4039 152.565 32.2608 152.946L32.2598 152.949C31.8553 154.045 31.3814 154.951 30.4003 155.467C30.3806 155.468 30.355 155.469 30.3233 155.47C30.2227 155.471 30.09 155.468 29.95 155.461C29.8107 155.454 29.6715 155.443 29.5593 155.431C29.4877 155.424 29.4422 155.417 29.4178 155.413C28.7712 155.075 28.1892 155.085 27.6746 155.149L27.6446 155.153L27.6154 155.16C27.3244 155.233 27.088 155.224 26.8115 155.213C26.753 155.211 26.6926 155.209 26.6295 155.207C26.347 154.998 26.2048 154.744 26.1072 154.441C26.0494 154.261 26.0091 154.069 25.9657 153.851C25.9619 153.832 25.9582 153.813 25.9543 153.793C25.9168 153.603 25.875 153.392 25.8168 153.184C25.6843 152.537 25.4274 151.96 25.1948 151.437L25.1858 151.417C24.7121 150.352 24.4484 149.414 24.9865 148.437Z" fill="#E3E4E5" stroke="#E3E4E5"/>
<path d="M19.6677 152.663L19.6676 152.663L19.666 152.672C19.5536 153.29 19.3856 153.852 19.1603 154.418C18.9518 154.829 18.6911 155.145 18.3349 155.56L18.3272 155.569L18.3198 155.578C18.2151 155.713 18.1167 155.742 17.9993 155.738C17.8475 155.734 17.6565 155.669 17.434 155.558C16.7536 155.218 16.0426 155.07 15.2566 155.213L15.2566 155.213L15.248 155.215C15.1623 155.232 15.0635 155.232 14.9777 155.215C14.8969 155.199 14.8628 155.175 14.8577 155.171C14.857 155.171 14.8569 155.171 14.8572 155.171L14.8468 155.161L14.8358 155.151C14.7927 155.113 14.7504 155.075 14.7089 155.039C14.4748 154.832 14.2674 154.65 14.0931 154.447C13.8975 154.221 13.7766 154.005 13.7353 153.769C13.6894 153.423 13.5376 153.156 13.4212 152.962C13.4039 152.933 13.3877 152.906 13.3724 152.881C13.275 152.72 13.2169 152.624 13.1838 152.516C13.083 152.057 13.0269 151.549 12.9717 151.049C12.9664 151 12.9611 150.952 12.9557 150.904L12.9533 150.882L12.949 150.861C12.9246 150.739 12.9116 150.613 12.8961 150.459L12.8952 150.449C12.8808 150.305 12.8637 150.134 12.8287 149.96L12.8264 149.948L12.8235 149.937C12.8078 149.874 12.7964 149.828 12.7883 149.785C12.7831 149.758 12.7804 149.738 12.7792 149.724L12.787 149.716L12.8145 149.675C12.9032 149.542 12.9756 149.389 12.9939 149.207C13.0097 149.049 12.9803 148.91 12.9459 148.798C12.8859 148.399 13.0946 148.027 13.4738 147.648L13.4822 147.64L13.4902 147.631C14.0487 147.017 14.713 146.522 15.4826 146.192C15.6881 146.104 15.8764 145.989 16.0268 145.896C16.0604 145.876 16.0922 145.856 16.1218 145.838C16.2909 145.737 16.4315 145.664 16.5917 145.622C16.7514 145.596 16.8269 145.595 16.8729 145.602C16.8972 145.606 16.9248 145.613 16.9776 145.666L16.9971 145.685L17.0188 145.703C17.0461 145.724 17.0753 145.749 17.1064 145.775C17.3551 145.982 17.7285 146.293 18.2933 146.293C18.3316 146.293 18.3657 146.302 18.3913 146.317C18.4149 146.33 18.4338 146.349 18.4477 146.377C18.6019 146.685 18.8086 146.924 19.0076 147.123C19.1052 147.22 19.2057 147.312 19.2975 147.397L19.3008 147.4C19.3912 147.483 19.4734 147.558 19.5512 147.636C19.6827 147.791 19.7746 148.002 19.8465 148.282C19.8991 148.487 19.9329 148.692 19.9703 148.917C19.9848 149.004 19.9998 149.095 20.0167 149.19C19.9573 150.431 19.8964 151.521 19.6677 152.663ZM16.3296 149.157L15.7287 149.957H16.7294C16.7809 149.957 16.8167 149.966 16.8963 149.987C16.9307 149.995 16.9731 150.006 17.0285 150.019C17.1772 150.054 17.4482 150.108 17.7347 149.965L17.92 149.872L17.9856 149.676C18.0306 149.541 18.0678 149.364 18.0346 149.165C18 148.957 17.8975 148.776 17.7444 148.623L17.5552 148.434L17.2931 148.486C16.8093 148.583 16.5336 148.885 16.3296 149.157Z" fill="#E3E4E5" stroke="#E3E4E5"/>
<path d="M8.05569 167.831L8.05093 167.839L8.04649 167.847C7.6167 168.658 6.9143 169.025 5.95421 169.197C5.9497 169.195 5.94431 169.193 5.93803 169.189C5.90474 169.171 5.86712 169.142 5.83412 169.109L5.81808 169.093L5.80065 169.079C5.32004 168.679 4.74067 168.521 4.04915 168.675L4.0314 168.679L4.01398 168.684C3.81352 168.744 3.66584 168.727 3.54567 168.675C3.42005 168.62 3.28072 168.506 3.13993 168.299C2.96531 167.991 2.74611 167.724 2.54698 167.488C2.52202 167.459 2.49739 167.43 2.47311 167.401C2.29133 167.187 2.12878 166.995 1.98692 166.783L1.97752 166.768L1.96719 166.755C1.71667 166.43 1.55737 166.056 1.41296 165.63C1.37235 165.511 1.33137 165.381 1.28876 165.247C1.18926 164.932 1.08092 164.59 0.947847 164.28L0.944398 164.272L0.94067 164.264C0.748842 163.857 0.705013 163.425 0.739007 162.943C0.764387 162.583 0.82862 162.229 0.898466 161.845C0.925305 161.698 0.952974 161.546 0.979586 161.387C0.985711 161.363 1.00978 161.309 1.09616 161.211C1.15889 161.14 1.21957 161.082 1.29297 161.012C1.32824 160.978 1.36645 160.941 1.40924 160.899C2.27996 160.312 3.32643 159.977 4.46241 159.806C5.34201 159.712 6.10162 160.094 6.75928 160.693C7.85404 161.788 8.58977 162.928 8.58977 164.477C8.58977 164.558 8.58998 164.639 8.59019 164.72C8.59308 165.824 8.5959 166.899 8.05569 167.831Z" fill="#E3E4E5" stroke="#E3E4E5"/>
<path d="M29.973 141.225L29.9597 141.222L29.9462 141.219C29.0961 141.037 28.4546 140.877 27.9092 140.333C27.7078 140.132 27.4835 140.037 27.2845 139.985C27.1891 139.96 27.0965 139.944 27.0195 139.931C26.999 139.928 26.9798 139.925 26.9617 139.922C26.9061 139.913 26.86 139.905 26.8117 139.896C26.61 139.855 26.5119 139.797 26.4245 139.654C26.3872 139.587 26.3492 139.516 26.3099 139.443C26.0679 138.991 25.7742 138.442 25.2692 138.063C25.1785 137.995 25.0915 137.842 25.1494 137.64L25.155 137.62L25.159 137.601C25.2314 137.239 25.2401 136.773 25.0727 136.355L25.0698 136.348L25.0665 136.341C24.7442 135.605 24.9958 134.964 25.3688 134.095L25.377 134.076L25.3836 134.056L25.3836 134.056C25.3838 134.056 25.3882 134.044 25.405 134.015C25.4224 133.985 25.4439 133.953 25.4756 133.905C25.4787 133.901 25.482 133.896 25.4855 133.89C25.5382 133.812 25.6323 133.671 25.6843 133.516L25.6878 133.505L25.6908 133.495C25.7449 133.306 25.8567 133.208 26.1499 133.111C26.1841 133.099 26.2067 133.095 26.2454 133.088C26.2785 133.082 26.3234 133.073 26.3975 133.056C26.4989 133.033 26.7081 132.981 26.8753 132.821C27.3218 132.42 27.872 132.463 28.6645 132.525C28.7027 132.528 28.7414 132.531 28.7807 132.534L28.7999 132.536H28.819C29.0116 132.536 29.2382 132.681 29.5441 132.986C30.6961 134.195 31.5432 135.557 31.9397 137.19C31.9556 137.269 31.9708 137.341 31.9857 137.412C32.0282 137.613 32.0676 137.8 32.1084 138.078C32.1029 139.007 31.8813 139.931 31.3909 140.802L31.3849 140.812L31.3794 140.823C31.3718 140.838 31.3343 140.892 31.2277 140.964C31.1267 141.032 30.9911 141.098 30.834 141.151C30.5064 141.26 30.1764 141.281 29.973 141.225Z" fill="#E3E4E5" stroke="#E3E4E5"/>
<circle cx="162.907" cy="30.5547" r="22.9551" stroke="#E3E4E5" stroke-width="2" stroke-linecap="round" stroke-linejoin="round"/>
<path fill-rule="evenodd" clip-rule="evenodd" d="M120.98 50.7445C120.98 50.7445 127.634 47.6801 128.606 51.2017C129.022 52.7099 127.046 53.3554 127.046 53.3554C127.046 53.3554 128.82 55.9385 126.828 57.7183C124.836 59.498 121.096 57.4075 121.096 57.4075C121.096 57.4075 123.28 61.7805 118.986 62.5384C114.692 63.2963 114.75 59.5182 114.75 59.5182C114.75 59.5182 110.353 62.0572 109.281 58.7629C108.208 55.4686 114.637 53.6093 114.637 53.6093C114.637 53.6093 109.862 51.2017 116.517 48.371C123.172 45.539 120.98 50.7445 120.98 50.7445ZM114.749 56.1943C114.506 54.1354 122.801 50.7085 123.374 52.9834C124.104 55.8848 115.146 59.5404 114.749 56.1943Z" fill="#E3E4E5"/>
<path d="M128.606 51.2017L127.642 51.4676L127.642 51.4681L128.606 51.2017ZM120.98 50.7445L120.058 50.3564L119.059 52.73L121.398 51.6528L120.98 50.7445ZM127.046 53.3554L126.735 52.4048L125.464 52.8197L126.221 53.9216L127.046 53.3554ZM126.828 57.7183L127.495 58.464L126.828 57.7183ZM121.096 57.4075L121.584 56.5346L118.752 54.9516L120.202 57.8543L121.096 57.4075ZM118.986 62.5384L118.812 61.5536L118.812 61.5536L118.986 62.5384ZM114.75 59.5182L115.75 59.5336L115.777 57.7705L114.25 58.6523L114.75 59.5182ZM109.281 58.7629L108.33 59.0724L109.281 58.7629ZM114.637 53.6093L114.914 54.5699L117.36 53.8625L115.087 52.7164L114.637 53.6093ZM116.517 48.371L116.909 49.2912L116.909 49.2911L116.517 48.371ZM114.749 56.1943L113.756 56.3119L113.756 56.312L114.749 56.1943ZM123.374 52.9834L124.344 52.7394L124.344 52.7389L123.374 52.9834ZM129.57 50.9358C129.217 49.6584 128.308 48.9643 127.268 48.68C126.294 48.4136 125.197 48.4957 124.249 48.6687C123.281 48.8454 122.362 49.1379 121.693 49.3808C121.357 49.5032 121.078 49.6151 120.882 49.6971C120.784 49.7382 120.706 49.7719 120.652 49.7958C120.625 49.8078 120.603 49.8174 120.588 49.8242C120.581 49.8276 120.575 49.8303 120.57 49.8323C120.568 49.8333 120.566 49.8341 120.565 49.8348C120.564 49.8351 120.563 49.8354 120.563 49.8356C120.563 49.8357 120.562 49.8359 120.562 49.8359C120.562 49.836 120.562 49.8361 120.98 50.7445C121.398 51.6528 121.398 51.6529 121.398 51.6529C121.398 51.6529 121.398 51.653 121.398 51.653C121.398 51.6531 121.398 51.6531 121.398 51.653C121.398 51.6529 121.399 51.6526 121.4 51.6522C121.402 51.6513 121.405 51.6497 121.41 51.6474C121.42 51.6428 121.437 51.6356 121.458 51.626C121.502 51.6067 121.568 51.578 121.654 51.5422C121.825 51.4704 122.074 51.3704 122.377 51.2605C122.986 51.039 123.791 50.7855 124.608 50.6362C125.446 50.4833 126.194 50.4596 126.741 50.6092C127.222 50.7408 127.508 50.9843 127.642 51.4676L129.57 50.9358ZM127.046 53.3554C127.356 54.306 127.356 54.3059 127.357 54.3057C127.357 54.3057 127.357 54.3056 127.358 54.3055C127.358 54.3053 127.359 54.3051 127.359 54.3049C127.36 54.3046 127.362 54.3041 127.363 54.3036C127.366 54.3027 127.369 54.3016 127.373 54.3003C127.381 54.2976 127.39 54.2943 127.402 54.2903C127.425 54.2822 127.455 54.2713 127.491 54.2573C127.562 54.2295 127.66 54.1893 127.774 54.1359C127.996 54.0311 128.303 53.8656 128.603 53.6283C129.197 53.1577 129.931 52.2437 129.57 50.9353L127.642 51.4681C127.697 51.6679 127.651 51.8307 127.361 52.06C127.219 52.1726 127.057 52.2626 126.923 52.326C126.857 52.3567 126.804 52.3787 126.769 52.392C126.752 52.3987 126.74 52.4031 126.734 52.4052C126.731 52.4063 126.729 52.4068 126.729 52.4067C126.73 52.4067 126.73 52.4065 126.731 52.4062C126.732 52.406 126.732 52.4058 126.733 52.4056C126.733 52.4055 126.734 52.4053 126.734 52.4052C126.734 52.4051 126.735 52.405 126.735 52.405C126.735 52.4049 126.735 52.4048 127.046 53.3554ZM127.495 58.464C128.85 57.2527 128.904 55.7379 128.66 54.6506C128.54 54.1146 128.346 53.6576 128.186 53.3389C128.105 53.1777 128.031 53.0471 127.975 52.9539C127.947 52.9072 127.923 52.8696 127.905 52.8419C127.896 52.8281 127.888 52.8167 127.883 52.8078C127.88 52.8034 127.877 52.7996 127.875 52.7965C127.874 52.795 127.873 52.7936 127.872 52.7923C127.872 52.7917 127.871 52.7911 127.871 52.7906C127.871 52.7903 127.87 52.7899 127.87 52.7898C127.87 52.7895 127.87 52.7891 127.046 53.3554C126.221 53.9216 126.221 53.9213 126.221 53.921C126.221 53.9209 126.221 53.9206 126.221 53.9204C126.22 53.92 126.22 53.9197 126.22 53.9194C126.219 53.9188 126.219 53.9183 126.219 53.918C126.219 53.9174 126.219 53.9173 126.219 53.9178C126.22 53.9189 126.222 53.9222 126.225 53.9277C126.232 53.9388 126.245 53.9584 126.261 53.9858C126.295 54.0408 126.343 54.1259 126.398 54.2347C126.509 54.4559 126.634 54.756 126.708 55.0882C126.854 55.7374 126.798 56.4041 126.162 56.9726L127.495 58.464ZM121.096 57.4075C120.608 58.2804 120.609 58.2806 120.609 58.2807C120.609 58.2808 120.609 58.281 120.61 58.2811C120.61 58.2814 120.611 58.2816 120.611 58.2819C120.612 58.2826 120.614 58.2833 120.615 58.2842C120.618 58.286 120.622 58.2882 120.627 58.291C120.637 58.2964 120.651 58.3038 120.668 58.3128C120.702 58.3309 120.75 58.3559 120.81 58.3863C120.929 58.4469 121.099 58.5294 121.309 58.6215C121.724 58.8046 122.308 59.032 122.97 59.1997C124.218 59.516 126.103 59.7077 127.495 58.464L126.162 56.9726C125.562 57.5086 124.581 57.5449 123.461 57.261C122.938 57.1285 122.463 56.9445 122.115 56.7912C121.942 56.7152 121.805 56.6483 121.712 56.6015C121.666 56.5782 121.631 56.56 121.61 56.5483C121.599 56.5425 121.591 56.5383 121.587 56.536C121.585 56.5348 121.583 56.5341 121.583 56.5339C121.583 56.5338 121.583 56.5338 121.583 56.5339C121.583 56.5339 121.583 56.534 121.583 56.5342C121.583 56.5342 121.584 56.5343 121.584 56.5344C121.584 56.5345 121.584 56.5346 121.096 57.4075ZM119.159 63.5232C120.414 63.3019 121.331 62.7882 121.918 62.0285C122.497 61.2799 122.657 60.4181 122.651 59.6811C122.646 58.947 122.476 58.2687 122.321 57.7924C122.242 57.55 122.163 57.3492 122.102 57.2065C122.072 57.135 122.046 57.0774 122.027 57.0359C122.017 57.0152 122.009 56.9983 122.003 56.9857C122 56.9794 121.998 56.9742 121.995 56.97C121.994 56.9679 121.994 56.9661 121.993 56.9646C121.992 56.9638 121.992 56.9631 121.992 56.9624C121.992 56.9621 121.991 56.9617 121.991 56.9615C121.991 56.9611 121.991 56.9607 121.096 57.4075C120.202 57.8543 120.201 57.854 120.201 57.8536C120.201 57.8535 120.201 57.8532 120.201 57.853C120.201 57.8527 120.201 57.8524 120.201 57.8521C120.2 57.8516 120.2 57.8514 120.2 57.8514C120.2 57.8514 120.201 57.8525 120.202 57.8545C120.204 57.8585 120.207 57.8663 120.213 57.8777C120.223 57.9006 120.24 57.9378 120.261 57.9873C120.303 58.0867 120.361 58.2335 120.42 58.4129C120.54 58.7803 120.648 59.2426 120.651 59.6965C120.655 60.1475 120.556 60.521 120.336 60.8055C120.125 61.0788 119.705 61.3961 118.812 61.5536L119.159 63.5232ZM114.75 59.5182C113.75 59.5029 113.75 59.5034 113.75 59.504C113.75 59.5042 113.75 59.5048 113.75 59.5053C113.75 59.5061 113.75 59.507 113.75 59.508C113.75 59.51 113.75 59.5122 113.75 59.5146C113.75 59.5195 113.75 59.5253 113.75 59.532C113.75 59.5455 113.75 59.5626 113.751 59.5831C113.752 59.6242 113.754 59.6791 113.758 59.7457C113.767 59.8785 113.786 60.0605 113.824 60.2739C113.9 60.694 114.059 61.272 114.406 61.8361C114.76 62.4117 115.308 62.9699 116.13 63.3103C116.945 63.6475 117.948 63.7371 119.159 63.5232L118.812 61.5536C117.877 61.7187 117.277 61.6202 116.895 61.4623C116.521 61.3074 116.278 61.0631 116.11 60.789C115.934 60.5033 115.84 60.1842 115.792 59.9195C115.769 59.7906 115.759 59.6834 115.754 59.6125C115.752 59.5773 115.751 59.5518 115.75 59.5378C115.75 59.5309 115.75 59.5269 115.75 59.5261C115.75 59.5257 115.75 59.5261 115.75 59.5274C115.75 59.528 115.75 59.5288 115.75 59.5299C115.75 59.5304 115.75 59.5309 115.75 59.5316C115.75 59.5319 115.75 59.5324 115.75 59.5326C115.75 59.5331 115.75 59.5336 114.75 59.5182ZM108.33 59.0724C108.682 60.1551 109.356 60.8551 110.216 61.1992C111.025 61.5225 111.888 61.4879 112.596 61.36C113.316 61.2298 113.977 60.9843 114.445 60.7805C114.683 60.6772 114.879 60.5812 115.017 60.51C115.086 60.4743 115.142 60.4445 115.181 60.4229C115.201 60.4121 115.217 60.4033 115.228 60.3968C115.234 60.3935 115.239 60.3908 115.242 60.3887C115.244 60.3877 115.246 60.3868 115.247 60.386C115.248 60.3856 115.248 60.3853 115.249 60.385C115.249 60.3849 115.25 60.3847 115.25 60.3846C115.25 60.3844 115.25 60.3842 114.75 59.5182C114.25 58.6523 114.25 58.6521 114.251 58.652C114.251 58.6519 114.251 58.6518 114.251 58.6517C114.251 58.6516 114.252 58.6515 114.252 58.6514C114.252 58.6513 114.252 58.6513 114.252 58.6514C114.251 58.6518 114.249 58.6526 114.247 58.6541C114.242 58.657 114.233 58.662 114.22 58.669C114.195 58.683 114.154 58.7046 114.101 58.7319C113.995 58.7866 113.839 58.8632 113.648 58.9464C113.258 59.1157 112.753 59.2991 112.24 59.3919C111.714 59.4869 111.277 59.4693 110.959 59.3422C110.693 59.2358 110.415 59.0178 110.232 58.4533L108.33 59.0724ZM114.637 53.6093C114.359 52.6486 114.358 52.6487 114.358 52.6488C114.358 52.6488 114.358 52.6489 114.357 52.649C114.357 52.6492 114.356 52.6493 114.356 52.6496C114.354 52.65 114.352 52.6505 114.35 52.6512C114.346 52.6525 114.34 52.6542 114.332 52.6564C114.317 52.6609 114.297 52.6672 114.27 52.6753C114.218 52.6915 114.143 52.7151 114.049 52.7459C113.862 52.8075 113.6 52.8985 113.289 53.0182C112.673 53.2558 111.847 53.6143 111.045 54.0914C110.256 54.5608 109.418 55.1878 108.849 55.9897C108.256 56.8263 107.944 57.8856 108.33 59.0724L110.232 58.4533C110.082 57.993 110.17 57.5846 110.481 57.1461C110.817 56.6728 111.384 56.2173 112.068 55.8101C112.739 55.4105 113.453 55.0983 114.009 54.8844C114.284 54.7782 114.515 54.6982 114.676 54.6453C114.756 54.6188 114.818 54.5993 114.859 54.5866C114.88 54.5803 114.895 54.5758 114.904 54.573C114.909 54.5716 114.912 54.5706 114.914 54.5701C114.915 54.5698 114.915 54.5697 114.915 54.5697C114.915 54.5696 114.915 54.5697 114.915 54.5697C114.915 54.5697 114.915 54.5698 114.915 54.5698C114.915 54.5698 114.914 54.5699 114.637 53.6093ZM116.126 47.4508C114.403 48.1835 113.271 48.9468 112.628 49.7673C111.933 50.6551 111.836 51.5875 112.146 52.4056C112.422 53.1358 112.979 53.6632 113.377 53.9752C113.587 54.1404 113.782 54.268 113.925 54.3551C113.998 54.399 114.058 54.4334 114.103 54.4579C114.125 54.4702 114.144 54.4801 114.158 54.4874C114.165 54.4911 114.171 54.4942 114.176 54.4967C114.178 54.4979 114.18 54.499 114.182 54.4999C114.183 54.5003 114.184 54.5008 114.184 54.5012C114.185 54.5013 114.185 54.5016 114.185 54.5017C114.186 54.5019 114.186 54.5022 114.637 53.6093C115.087 52.7164 115.087 52.7166 115.088 52.7168C115.088 52.7168 115.088 52.717 115.088 52.7172C115.089 52.7174 115.089 52.7176 115.09 52.7178C115.09 52.7181 115.091 52.7183 115.091 52.7183C115.091 52.7185 115.09 52.718 115.088 52.7171C115.085 52.7152 115.077 52.7112 115.066 52.7051C115.044 52.693 115.009 52.6729 114.963 52.6455C114.872 52.5898 114.746 52.5073 114.612 52.4025C114.322 52.1747 114.102 51.9233 114.016 51.6977C113.964 51.5601 113.922 51.3598 114.203 51.0001C114.537 50.573 115.304 49.9739 116.909 49.2912L116.126 47.4508ZM120.98 50.7445C121.902 51.1325 121.902 51.1321 121.902 51.1316C121.902 51.1314 121.902 51.131 121.902 51.1306C121.903 51.1299 121.903 51.1292 121.903 51.1283C121.904 51.1266 121.905 51.1245 121.906 51.1221C121.908 51.1174 121.91 51.1114 121.913 51.1041C121.919 51.0897 121.927 51.0702 121.936 51.0463C121.955 50.9985 121.979 50.9322 122.007 50.8508C122.063 50.6891 122.133 50.4622 122.193 50.1983C122.306 49.7061 122.42 48.9357 122.202 48.2087C122.087 47.824 121.872 47.4298 121.501 47.1149C121.129 46.7997 120.665 46.6187 120.144 46.5546C119.146 46.432 117.835 46.7233 116.126 47.4509L116.909 49.2911C118.526 48.6028 119.437 48.4827 119.9 48.5397C120.109 48.5653 120.185 48.6218 120.207 48.64C120.229 48.6586 120.259 48.6938 120.286 48.7828C120.352 49.0031 120.334 49.3571 120.244 49.7524C120.203 49.9323 120.154 50.0899 120.115 50.2018C120.096 50.2573 120.08 50.3 120.07 50.3271C120.065 50.3406 120.061 50.35 120.059 50.3551C120.058 50.3576 120.057 50.359 120.057 50.3592C120.057 50.3594 120.057 50.3592 120.057 50.3587C120.058 50.3585 120.058 50.3582 120.058 50.3578C120.058 50.3576 120.058 50.3573 120.058 50.3572C120.058 50.3568 120.058 50.3564 120.98 50.7445ZM115.742 56.0767C115.753 56.1694 115.706 56.141 115.84 55.9533C115.966 55.7771 116.189 55.5524 116.521 55.2985C117.181 54.7938 118.125 54.2851 119.121 53.8946C120.123 53.5011 121.09 53.2625 121.79 53.235C122.144 53.2211 122.347 53.2654 122.436 53.3035C122.488 53.3257 122.423 53.3028 122.404 53.2278L124.344 52.7389C124.182 52.0952 123.732 51.6818 123.221 51.464C122.748 51.2621 122.211 51.217 121.711 51.2366C120.702 51.2762 119.502 51.5965 118.39 52.0327C117.271 52.4719 116.151 53.0638 115.306 53.7097C114.886 54.031 114.496 54.3941 114.213 54.7904C113.938 55.1753 113.684 55.7044 113.756 56.3119L115.742 56.0767ZM122.404 53.2274C122.447 53.3971 122.385 53.8125 121.706 54.4509C121.077 55.0411 120.133 55.6049 119.121 56.0002C118.097 56.4 117.128 56.5789 116.46 56.5165C116.131 56.4858 115.953 56.4041 115.87 56.3408C115.815 56.2988 115.762 56.2401 115.742 56.0766L113.756 56.312C113.836 56.985 114.15 57.544 114.658 57.9313C115.137 58.2972 115.719 58.4561 116.274 58.5079C117.374 58.6105 118.674 58.3216 119.848 57.8631C121.034 57.4001 122.216 56.7152 123.075 55.9085C123.882 55.1499 124.666 54.0204 124.344 52.7394L122.404 53.2274Z" fill="#E3E4E5"/>
<path d="M121.098 57.4062C121.098 57.4062 128.064 71.081 130.71 89.1427" stroke="#E3E4E5" stroke-width="2" stroke-linecap="round" stroke-linejoin="round"/>
<path d="M138.395 89.966C135.599 78.2491 142.754 62.8034 136.278 52.3711" stroke="#E3E4E5" stroke-width="2" stroke-linecap="round" stroke-linejoin="round"/>
<path d="M155.732 69.7324C148.022 75.2258 142.392 85.7857 140.074 90.0198" stroke="#E3E4E5" stroke-width="2" stroke-linecap="round" stroke-linejoin="round"/>
<path fill-rule="evenodd" clip-rule="evenodd" d="M156.903 37.9374C160.08 37.9236 159.766 41.7761 158.335 44.8329C168.058 42.8814 165.041 52.6569 159.645 52.4244C164.737 59.6698 150.433 57.9292 151.882 50.2607C149.392 52.4939 144.917 52.9878 144.758 48.8737C144.681 46.7832 146.93 45.4986 149.167 45.1449C146.832 43.1113 144.954 40.5711 146.598 38.7193C148.79 36.2549 151.643 38.4857 152.968 41.5273C153.793 39.5429 155.308 37.9488 156.903 37.9374ZM155.997 50.2758C153.313 51.0236 148.584 45.2384 152.126 44.2481C154.215 43.6544 159.077 49.4181 155.997 50.2758Z" fill="#E3E4E5"/>
<path d="M158.335 44.8329L157.43 44.4089L156.59 46.2033L158.532 45.8134L158.335 44.8329ZM156.903 37.9374L156.899 36.9375L156.896 36.9375L156.903 37.9374ZM159.645 52.4244L159.688 51.4254L157.659 51.338L158.827 52.9994L159.645 52.4244ZM151.882 50.2607L152.865 50.4463L153.413 47.544L151.214 49.5163L151.882 50.2607ZM144.758 48.8737L143.758 48.9106L143.759 48.9124L144.758 48.8737ZM149.167 45.1449L149.324 46.1327L151.44 45.798L149.824 44.3908L149.167 45.1449ZM146.598 38.7193L145.851 38.0548L145.85 38.0553L146.598 38.7193ZM152.968 41.5273L152.051 41.9267L152.99 44.0807L153.892 41.9111L152.968 41.5273ZM155.997 50.2758L155.729 49.3125L155.729 49.3125L155.997 50.2758ZM152.126 44.2481L152.395 45.2112L152.399 45.21L152.126 44.2481ZM159.241 45.257C159.996 43.6442 160.508 41.7257 160.342 40.1301C160.257 39.3207 159.988 38.503 159.386 37.8827C158.764 37.2423 157.906 36.9331 156.899 36.9375L156.907 38.9374C157.488 38.9349 157.782 39.102 157.951 39.2756C158.139 39.4693 158.297 39.8032 158.352 40.3372C158.466 41.4287 158.106 42.9649 157.43 44.4089L159.241 45.257ZM159.602 53.4235C161.27 53.4954 162.726 52.7909 163.776 51.7836C164.817 50.7856 165.522 49.4325 165.655 48.0818C165.791 46.6978 165.316 45.2645 163.938 44.3856C162.624 43.5465 160.682 43.3419 158.139 43.8525L158.532 45.8134C160.849 45.3482 162.177 45.6337 162.862 46.0714C163.486 46.4692 163.742 47.0994 163.665 47.8862C163.584 48.7064 163.131 49.6316 162.392 50.3402C161.663 51.0395 160.718 51.4697 159.688 51.4254L159.602 53.4235ZM150.899 50.075C150.472 52.3387 151.218 54.2011 152.47 55.5367C153.695 56.8434 155.393 57.6436 156.955 57.92C157.741 58.0589 158.533 58.0732 159.248 57.925C159.957 57.7778 160.66 57.4534 161.15 56.8548C162.214 55.5555 161.787 53.7328 160.463 51.8495L158.827 52.9994C160.049 54.7387 159.744 55.4155 159.603 55.588C159.49 55.7252 159.26 55.8799 158.841 55.9666C158.428 56.0524 157.898 56.0557 157.304 55.9506C156.108 55.7389 154.82 55.1189 153.929 54.1689C153.066 53.2478 152.568 52.0169 152.865 50.4463L150.899 50.075ZM143.759 48.9124C143.805 50.1247 144.178 51.1209 144.869 51.8352C145.557 52.5467 146.459 52.8745 147.369 52.9445C149.145 53.0812 151.146 52.2646 152.55 51.0051L151.214 49.5163C150.129 50.49 148.647 51.0369 147.523 50.9504C146.982 50.9088 146.581 50.7283 146.307 50.445C146.036 50.1646 145.79 49.6798 145.757 48.8351L143.759 48.9124ZM149.011 44.1572C147.777 44.3523 146.489 44.8093 145.493 45.5591C144.484 46.3192 143.704 47.4457 143.758 48.9106L145.757 48.8369C145.734 48.2113 146.041 47.6502 146.696 47.1569C147.365 46.6534 148.321 46.2912 149.324 46.1327L149.011 44.1572ZM145.85 38.0553C145.289 38.688 145.005 39.415 144.978 40.1833C144.952 40.9296 145.169 41.6514 145.494 42.3083C146.138 43.6058 147.309 44.8529 148.511 45.8991L149.824 44.3908C148.69 43.4033 147.754 42.3635 147.286 41.4195C147.056 40.9557 146.966 40.5682 146.977 40.2538C146.987 39.9615 147.085 39.6766 147.346 39.3834L145.85 38.0553ZM153.885 41.1279C153.168 39.4827 151.999 37.9523 150.588 37.181C149.866 36.787 149.043 36.5722 148.183 36.7019C147.315 36.8327 146.525 37.2972 145.851 38.0548L147.345 39.3839C147.768 38.9092 148.156 38.7285 148.481 38.6795C148.814 38.6294 149.197 38.7002 149.629 38.9361C150.523 39.4245 151.443 40.5303 152.051 41.9267L153.885 41.1279ZM156.896 36.9375C155.76 36.9456 154.751 37.5129 153.957 38.268C153.158 39.0289 152.5 40.0474 152.045 41.1435L153.892 41.9111C154.261 41.0229 154.773 40.2521 155.336 39.717C155.904 39.1761 156.45 38.9407 156.91 38.9374L156.896 36.9375ZM155.729 49.3125C155.441 49.3926 154.938 49.3227 154.271 48.9279C153.632 48.5504 152.999 47.9629 152.535 47.3251C152.053 46.6625 151.852 46.0857 151.859 45.7319C151.862 45.581 151.9 45.503 151.941 45.4528C151.986 45.398 152.101 45.2933 152.395 45.2111L151.856 43.285C151.265 43.4505 150.753 43.7431 150.389 44.1914C150.021 44.6442 149.869 45.1748 149.859 45.6938C149.84 46.6799 150.326 47.6883 150.918 48.5023C151.529 49.3412 152.36 50.1216 153.253 50.6495C154.116 51.1601 155.211 51.5329 156.266 51.2391L155.729 49.3125ZM152.399 45.21C152.409 45.2071 152.503 45.188 152.719 45.2557C152.929 45.3214 153.191 45.4501 153.488 45.6495C154.084 46.0488 154.71 46.6569 155.196 47.3129C155.7 47.9928 155.957 48.5943 155.989 48.9733C156.003 49.142 155.967 49.1933 155.967 49.1947C155.964 49.1979 155.956 49.2103 155.927 49.2296C155.896 49.2503 155.836 49.2827 155.729 49.3125L156.266 51.2391C156.827 51.0828 157.316 50.7806 157.635 50.2977C157.949 49.8221 158.023 49.287 157.982 48.804C157.903 47.8796 157.391 46.9166 156.803 46.1225C156.197 45.3045 155.409 44.5295 154.602 43.9882C154.198 43.7173 153.761 43.4865 153.317 43.3472C152.88 43.21 152.365 43.1406 151.852 43.2862L152.399 45.21Z" fill="#E3E4E5"/>
<path fill-rule="evenodd" clip-rule="evenodd" d="M134.713 58.4205C133.602 57.5173 132.129 57.0765 131.366 58.4697C128.947 62.8541 135.095 67.9938 135.902 71.95C136.129 72.9832 132.979 69.833 132.399 72.2014C131.543 75.603 134.365 88.3026 137.363 89.7641C139.177 90.6458 142.579 76.5857 142.024 74.3437C141.621 72.6801 139.832 74.1415 139.832 74.1415C139.832 74.1415 144.14 61.1653 143.334 57.7636C142.805 55.6466 140.738 57.0828 140.738 57.0828C140.738 57.0828 142.704 46.8021 137.286 44.7356C135.573 44.08 132.902 43.2489 132.147 45.592C131.164 48.693 133.478 55.6491 134.713 58.4205Z" stroke="#E3E4E5" stroke-width="2" stroke-linecap="round" stroke-linejoin="round"/>
<path d="M141.571 78.9302C142.83 76.7134 145.099 78.1749 145.099 78.1749C145.099 78.1749 146.409 70.3131 147.594 68.8516C149.382 66.6841 150.491 71.8756 150.491 71.8756C150.491 71.8756 160.671 61.6707 163.417 65.7531C165.13 68.3236 152.531 74.8238 152.531 74.8238C152.531 74.8238 157.218 74.5724 156.815 77.5698C156.563 79.4595 151.473 80.0393 148.223 81.0978C148.046 87.3718 146.272 88.0552 140.074 90.0206" stroke="#E3E4E5" stroke-width="2" stroke-linecap="round" stroke-linejoin="round"/>
<path d="M151.882 50.2598C151.882 50.2598 146.953 57.0289 142.024 74.3429" stroke="#E3E4E5" stroke-width="2" stroke-linecap="round" stroke-linejoin="round"/>
<path d="M89.449 51.8129C94.0178 50.2125 95.8557 46.3308 94.8502 38.877C94.0569 32.9996 90.342 31.2009 89.9151 27.3331C89.0322 19.8705 94.2098 13.9312 86.473 8.35694C82.6962 5.64624 79.8327 7.13801 75.7818 7.56495C69.4459 8.266 62.7146 1.7166 57.4144 8.57041C53.6376 13.4133 55.9214 19.7795 53.4848 25.11C51.8705 28.643 48.3299 30.0792 46.7232 34.6442C44.4697 41.0483 44.4697 47.6015 44.4697 47.6015L49.7989 46.5506L56.7791 46.4786L64.7697 33.0324L64.2 29.8001L65.0413 27.1752L67.0004 25.5483L69.7957 25.8831L71.0955 27.8296L72.682 25.3475L72.9523 22.4031L72.5873 19.8402L76.4917 20.9985L81.087 21.2726L86.1421 20.0309L88.273 18.836L87.8486 25.3487L86.953 31.7744L85.46 37.5987L82.719 42.4631L79.3262 44.714L76.0521 44.6331L73.0761 44.0799L71.8256 47.1923L76.0521 47.6066L81.087 48.4933L86.5374 50.2794L89.449 51.8129Z" fill="#E3E4E5" stroke="#E3E4E5" stroke-width="2"/>
<path d="M115.565 90.1111C115.565 90.1111 108.437 65.6515 90.7706 52.7056C85.5235 48.8517 78.9337 47.6795 71.8248 47.1844C71.8248 47.1844 71.8248 53.3435 69.0117 53.514C64.7714 53.7704 59.451 46.6602 56.7807 46.4783C14.0157 43.6173 10.9817 108.638 49.2903 122.878C57.8759 126.07 69.7507 128.373 74.111 122.953C77.7577 118.419 78.5611 108.482 75.7127 106.783C72.8643 105.084 66.7596 117.565 66.7596 117.565C66.7596 117.565 65.3259 107.097 63.5587 107.578C61.7916 108.059 62.4535 115.817 62.4535 115.817" stroke="#E3E4E5" stroke-width="2" stroke-linecap="round" stroke-linejoin="round"/>
<path d="M56.7803 46.4774L64.7709 33.0312" stroke="#E3E4E5" stroke-width="2" stroke-linecap="round" stroke-linejoin="round"/>
<path d="M71.0949 27.8308C74.6166 24.0388 72.5854 19.8414 72.5854 19.8414C82.1297 23.6801 88.2724 18.8359 88.2724 18.8359C88.2724 18.8359 87.877 39.3052 81.9062 43.1123C74.7909 48.0183 69.0107 40.0845 69.0107 40.0845" stroke="#E3E4E5" stroke-width="2" stroke-linecap="round" stroke-linejoin="round"/>
<path d="M115.565 90.1123C115.565 90.1123 143.297 89.3355 149.754 90.7982C159.235 92.9456 164.121 109.659 162.648 111.813C161.176 113.967 153.801 102.51 153.801 102.51C153.801 102.51 153.772 107.791 146.859 107.57C139.946 107.349 140.902 100.58 140.902 100.58C140.902 100.58 112.566 109.162 102.802 103.21C98.9482 101.105 95.5869 96.1476 92.832 90.7982" stroke="#E3E4E5" stroke-width="2" stroke-linecap="round" stroke-linejoin="round"/>
<path d="M71.3625 28.8635C71.3625 28.8635 70.7385 24.3579 66.9984 25.5477C63.2582 26.7376 63.4578 34.1144 66.4603 34.247C68.0329 34.3165 68.859 33.7847 68.859 33.7847" stroke="#E3E4E5" stroke-width="2" stroke-linecap="round" stroke-linejoin="round"/>
<path fill-rule="evenodd" clip-rule="evenodd" d="M71.8232 47.1855L73.075 44.0781L71.8232 47.1855Z" fill="#E3E4E5"/>
<path d="M71.8232 47.1855L73.075 44.0781" stroke="#E3E4E5" stroke-width="2" stroke-linecap="round" stroke-linejoin="round"/>
<path d="M66.7603 117.566L73.2225 88.0639L54.9486 64.0275C48.6784 69.8279 44.75 78.1242 44.75 87.3401C44.75 99.8313 51.9651 110.636 62.453 115.819" stroke="#E3E4E5" stroke-width="2" stroke-linecap="round" stroke-linejoin="round"/>
<path d="M73.2227 88.0625L76.426 96.7567L74.5275 106.782" stroke="#E3E4E5" stroke-width="2" stroke-linecap="round" stroke-linejoin="round"/>
<path d="M83.8183 57.2673C84.3716 57.5844 85.0524 57.6652 85.689 57.4897C85.9467 57.4151 86.1816 57.3027 86.3901 57.165C85.2595 56.7949 84.1012 56.4867 82.9189 56.2442C83.0857 56.6674 83.3977 57.0274 83.8183 57.2673Z" fill="#E3E4E5" stroke="#E3E4E5" stroke-width="2" stroke-linecap="round" stroke-linejoin="round"/>
<path d="M74.6426 58.7052C74.1576 58.445 73.5942 58.3881 73.0561 58.5485C73.051 58.5498 73.0447 58.5523 73.0397 58.5536C72.5079 58.7014 72.067 59.0475 71.7967 59.5275C71.529 60.0037 71.462 60.5519 71.6073 61.0736C71.9382 62.1523 73.075 62.7687 74.2043 62.4845C75.2994 62.151 75.9411 61.0066 75.6342 59.9266C75.4788 59.4024 75.1251 58.9654 74.6426 58.7052Z" fill="#E3E4E5" stroke="#E3E4E5" stroke-width="2" stroke-linecap="round" stroke-linejoin="round"/>
<path d="M104.583 75.9101C104.576 75.9126 104.57 75.9139 104.564 75.9152C104.176 76.0225 103.847 76.2865 103.636 76.6604C103.388 77.1012 103.327 77.6482 103.468 78.1623C103.764 79.1299 104.732 79.7298 105.64 79.5101C106.331 79.2941 106.779 78.6195 106.807 77.8617C106.665 77.4107 106.515 76.9636 106.355 76.5202C105.911 75.9821 105.227 75.7181 104.583 75.9101Z" fill="#E3E4E5" stroke="#E3E4E5" stroke-width="2" stroke-linecap="round" stroke-linejoin="round"/>
<path d="M87.3185 74.3477C87.1531 74.3477 86.9863 74.3704 86.8196 74.4197C85.8786 74.6938 85.3506 75.6285 85.6184 76.5481C85.6196 76.5544 85.6221 76.5607 85.6234 76.567C85.7396 76.9939 86.02 77.3476 86.4129 77.5636C86.8259 77.7897 87.3034 77.8365 87.7581 77.6937C87.7644 77.6912 87.7708 77.6899 87.7771 77.6887C88.2318 77.556 88.6057 77.2617 88.8318 76.8613C89.0554 76.4647 89.1072 76.0024 88.9783 75.5603C88.7585 74.8264 88.0689 74.3477 87.3185 74.3477Z" fill="#E3E4E5" stroke="#E3E4E5" stroke-width="2" stroke-linecap="round" stroke-linejoin="round"/>
<path fill-rule="evenodd" clip-rule="evenodd" d="M106.197 81.454L106.197 81.454C106.185 81.4578 106.172 81.4615 106.159 81.4641C105.852 81.5424 105.544 81.5803 105.241 81.5803C103.58 81.5803 102.046 80.4573 101.53 78.7344C101.529 78.7313 101.528 78.7284 101.527 78.7256C101.526 78.7227 101.525 78.7199 101.525 78.7167C101.237 77.686 101.364 76.5744 101.877 75.6662C102.352 74.825 103.111 74.2225 104.017 73.9698C104.424 73.8498 104.836 73.8082 105.24 73.8347C101.863 66.6613 95.8811 60.9569 88.5119 57.9431C87.9587 58.629 87.1806 59.162 86.2383 59.4336C85.8378 59.5447 85.4273 59.5991 85.0193 59.5991C84.245 59.5991 83.4808 59.402 82.8151 59.0205C81.8627 58.4749 81.1844 57.6058 80.904 56.5713C80.8383 56.3414 80.7941 56.109 80.7688 55.8766C79.3731 55.6884 77.9482 55.5898 76.5007 55.5898C70.3719 55.5898 64.6499 57.3279 59.7969 60.3367L78.0114 84.2935H108.103C107.987 83.0721 107.8 81.8721 107.55 80.6948C107.167 81.0371 106.711 81.3011 106.197 81.454ZM74.7613 64.4277C74.7499 64.4315 74.7386 64.4341 74.7272 64.4366C74.3647 64.5301 74.0009 64.5755 73.6447 64.5755C71.8422 64.5755 70.2052 63.4286 69.6683 61.6488C69.6677 61.6463 69.6667 61.6435 69.6658 61.6406C69.6648 61.6378 69.6639 61.6349 69.6633 61.6324C69.3677 60.5878 69.4991 59.4889 70.0334 58.5377C70.5677 57.5878 71.4393 56.9032 72.4889 56.6089C74.6552 55.9723 76.9352 57.2064 77.5743 59.3638C78.1857 61.5213 76.9213 63.7873 74.7613 64.4277ZM88.3516 79.6264C89.3116 79.3434 90.1074 78.7131 90.5924 77.8516C91.0838 76.9763 91.2 75.962 90.9145 74.9919C90.331 73.0277 88.2392 71.9035 86.2523 72.482C84.2603 73.0631 83.1058 75.1359 83.6742 77.1064C83.9369 78.0639 84.5634 78.8558 85.4401 79.3371C85.9933 79.639 86.6148 79.7944 87.24 79.7944C87.6139 79.7944 87.9891 79.7388 88.3516 79.6264Z" fill="#E3E4E5"/>
<path d="M106.197 81.454L106.484 82.4118L106.484 82.4118L106.197 81.454ZM106.197 81.454L105.912 80.4954L105.91 80.4961L106.197 81.454ZM106.159 81.4641L105.963 80.4835C105.946 80.4869 105.929 80.4908 105.912 80.4951L106.159 81.4641ZM101.53 78.7344L100.549 78.9309C100.555 78.9615 100.563 78.9918 100.572 79.0216L101.53 78.7344ZM101.527 78.7256L100.579 79.0416L100.579 79.0422L101.527 78.7256ZM101.525 78.7167L102.505 78.5199C102.5 78.4956 102.495 78.4715 102.488 78.4476L101.525 78.7167ZM101.877 75.6662L102.748 76.1579L102.748 76.1579L101.877 75.6662ZM104.017 73.9698L104.286 74.9331C104.29 74.9317 104.295 74.9304 104.3 74.929L104.017 73.9698ZM105.24 73.8347L105.174 74.8325C105.527 74.8557 105.867 74.6904 106.066 74.3978C106.265 74.1053 106.295 73.7291 106.144 73.4088L105.24 73.8347ZM88.5119 57.9431L88.8905 57.0175C88.4814 56.8502 88.011 56.9713 87.7336 57.3152L88.5119 57.9431ZM86.2383 59.4336L86.5058 60.3972L86.5152 60.3945L86.2383 59.4336ZM82.8151 59.0205L83.3123 58.1529L83.3123 58.1529L82.8151 59.0205ZM80.904 56.5713L81.8693 56.3097L81.8655 56.2966L80.904 56.5713ZM80.7688 55.8766L81.763 55.7685C81.7133 55.3113 81.3582 54.947 80.9025 54.8855L80.7688 55.8766ZM59.7969 60.3367L59.2699 59.4868C59.0305 59.6353 58.8648 59.8779 58.8135 60.1549C58.7623 60.4319 58.8303 60.7177 59.0008 60.942L59.7969 60.3367ZM78.0114 84.2935L77.2154 84.8987C77.4045 85.1475 77.6989 85.2935 78.0114 85.2935V84.2935ZM108.103 84.2935V85.2935C108.385 85.2935 108.654 85.1747 108.843 84.9663C109.033 84.7579 109.125 84.4792 109.099 84.1988L108.103 84.2935ZM107.55 80.6948L108.528 80.487C108.454 80.1381 108.2 79.8551 107.861 79.7443C107.522 79.6335 107.149 79.7117 106.883 79.9494L107.55 80.6948ZM74.7272 64.4366L74.5103 63.4604C74.4993 63.4628 74.4884 63.4655 74.4775 63.4683L74.7272 64.4366ZM74.7613 64.4277L74.4771 63.469C74.4664 63.4722 74.4557 63.4755 74.4451 63.4791L74.7613 64.4277ZM69.6683 61.6488L68.6981 61.8912C68.702 61.9067 68.7063 61.9222 68.7109 61.9376L69.6683 61.6488ZM69.6658 61.6406L70.6145 61.3244L70.6145 61.3243L69.6658 61.6406ZM69.6633 61.6324L70.6334 61.3898C70.6309 61.3799 70.6283 61.37 70.6255 61.3602L69.6633 61.6324ZM70.0334 58.5377L69.1618 58.0474L69.1615 58.0479L70.0334 58.5377ZM72.4889 56.6089L72.7589 57.5718L72.7709 57.5683L72.4889 56.6089ZM77.5743 59.3638L78.5365 59.0911L78.5331 59.0798L77.5743 59.3638ZM90.5924 77.8516L91.4638 78.3423L91.4644 78.3411L90.5924 77.8516ZM88.3516 79.6264L88.0689 78.6671L88.0554 78.6712L88.3516 79.6264ZM90.9145 74.9919L91.8739 74.7096L91.8731 74.7071L90.9145 74.9919ZM86.2523 72.482L85.9727 71.5219L85.9722 71.522L86.2523 72.482ZM83.6742 77.1064L84.6386 76.8417L84.635 76.8292L83.6742 77.1064ZM85.4401 79.3371L84.9588 80.2137L84.9611 80.2149L85.4401 79.3371ZM106.484 82.4118L106.485 82.4118L105.91 80.4961L105.91 80.4962L106.484 82.4118ZM106.355 82.4446C106.422 82.4313 106.48 82.4131 106.484 82.4118L105.91 80.4961C105.902 80.4986 105.906 80.4971 105.913 80.4953C105.921 80.4931 105.939 80.4884 105.963 80.4835L106.355 82.4446ZM105.241 82.5803C105.628 82.5803 106.019 82.5319 106.407 82.433L105.912 80.4951C105.686 80.5528 105.461 80.5803 105.241 80.5803V82.5803ZM100.572 79.0216C101.212 81.1547 103.125 82.5803 105.241 82.5803V80.5803C104.035 80.5803 102.881 79.76 102.488 78.4472L100.572 79.0216ZM100.579 79.0422C100.58 79.0456 100.575 79.0317 100.57 79.0147C100.564 78.9957 100.557 78.9667 100.549 78.9309L102.51 78.538C102.503 78.4989 102.494 78.467 102.487 78.445C102.484 78.4341 102.481 78.4252 102.479 78.4193C102.478 78.4139 102.476 78.4092 102.476 78.409L100.579 79.0422ZM100.544 78.9135C100.552 78.9526 100.561 78.9845 100.567 79.0063C100.571 79.0171 100.573 79.0259 100.575 79.0316C100.577 79.0369 100.579 79.0415 100.579 79.0416L102.476 78.4095C102.475 78.4057 102.48 78.4196 102.484 78.4363C102.49 78.4552 102.498 78.4841 102.505 78.5199L100.544 78.9135ZM101.006 75.1745C100.359 76.3215 100.205 77.7077 100.562 78.9858L102.488 78.4476C102.269 77.6643 102.37 76.8274 102.748 76.1579L101.006 75.1745ZM103.748 73.0066C102.579 73.3328 101.607 74.1102 101.006 75.1746L102.748 76.1579C103.097 75.5397 103.644 75.1122 104.286 74.9331L103.748 73.0066ZM105.305 72.8368C104.787 72.8029 104.257 72.8563 103.734 73.0107L104.3 74.929C104.59 74.8434 104.884 74.8135 105.174 74.8325L105.305 72.8368ZM88.1334 58.8687C95.2698 61.7873 101.065 67.3128 104.335 74.2605L106.144 73.4088C102.662 66.0098 96.4924 60.1265 88.8905 57.0175L88.1334 58.8687ZM86.5152 60.3945C87.6538 60.0663 88.6073 59.4176 89.2903 58.5709L87.7336 57.3152C87.31 57.8404 86.7073 58.2577 85.9613 58.4727L86.5152 60.3945ZM85.0193 60.5991C85.5159 60.5991 86.0165 60.533 86.5057 60.3972L85.9708 58.47C85.6592 58.5565 85.3387 58.5991 85.0193 58.5991V60.5991ZM82.3179 59.8882C83.1404 60.3595 84.077 60.5991 85.0193 60.5991V58.5991C84.413 58.5991 83.8212 58.4445 83.3123 58.1529L82.3179 59.8882ZM79.9388 56.8329C80.2906 58.1305 81.1417 59.2143 82.318 59.8882L83.3123 58.1529C82.5837 57.7355 82.0783 57.0811 81.8692 56.3097L79.9388 56.8329ZM79.7747 55.9846C79.8058 56.2705 79.8604 56.5588 79.9425 56.846L81.8655 56.2966C81.8162 56.124 81.7824 55.9475 81.763 55.7685L79.7747 55.9846ZM76.5007 56.5898C77.9028 56.5898 79.283 56.6853 80.6352 56.8676L80.9025 54.8855C79.4631 54.6915 77.9937 54.5898 76.5007 54.5898V56.5898ZM60.3238 61.1866C65.0233 58.273 70.5636 56.5898 76.5007 56.5898V54.5898C70.1802 54.5898 64.2764 56.3829 59.2699 59.4868L60.3238 61.1866ZM78.8074 83.6883L60.5929 59.7315L59.0008 60.942L77.2154 84.8987L78.8074 83.6883ZM108.103 83.2935H78.0114V85.2935H108.103V83.2935ZM106.572 80.9026C106.814 82.0438 106.995 83.206 107.108 84.3882L109.099 84.1988C108.979 82.9381 108.786 81.7003 108.528 80.487L106.572 80.9026ZM106.482 82.4125C107.145 82.2155 107.73 81.8758 108.217 81.4402L106.883 79.9494C106.605 80.1984 106.278 80.3867 105.912 80.4954L106.482 82.4125ZM74.9442 65.4128C74.9481 65.4119 75.0094 65.3991 75.0775 65.3764L74.4451 63.4791C74.4707 63.4705 74.4909 63.4652 74.5017 63.4625C74.5109 63.4602 74.518 63.4587 74.5103 63.4604L74.9442 65.4128ZM73.6447 65.5755C74.086 65.5755 74.5337 65.5192 74.9769 65.4049L74.4775 63.4683C74.1957 63.5409 73.9158 63.5755 73.6447 63.5755V65.5755ZM68.7109 61.9376C69.3804 64.1573 71.4198 65.5755 73.6447 65.5755V63.5755C72.2646 63.5755 71.0299 62.6999 70.6257 61.3601L68.7109 61.9376ZM68.7171 61.9568C68.7181 61.9598 68.7158 61.9529 68.7132 61.9446C68.7105 61.9362 68.7045 61.9167 68.6981 61.8912L70.6385 61.4065C70.6315 61.3784 70.6247 61.3562 70.6212 61.3451C70.6192 61.3389 70.6176 61.3337 70.6165 61.3305C70.6155 61.3275 70.6146 61.3248 70.6145 61.3244L68.7171 61.9568ZM68.6931 61.875C68.7001 61.903 68.7069 61.9251 68.7104 61.9363C68.7124 61.9425 68.714 61.9476 68.7151 61.9508C68.7161 61.9538 68.717 61.9565 68.7171 61.9569L70.6145 61.3243C70.6135 61.3214 70.6158 61.3282 70.6184 61.3365C70.621 61.3449 70.627 61.3644 70.6334 61.3898L68.6931 61.875ZM69.1615 58.0479C68.4976 59.2297 68.3327 60.6028 68.701 61.9047L70.6255 61.3602C70.4027 60.5728 70.5005 59.748 70.9052 59.0275L69.1615 58.0479ZM72.2189 55.646C70.9141 56.0119 69.8261 56.8665 69.1618 58.0474L70.9049 59.028C71.3093 58.3092 71.9644 57.7945 72.7589 57.5718L72.2189 55.646ZM78.5331 59.0798C77.7362 56.3898 74.8985 54.8585 72.207 55.6495L72.7709 57.5683C74.4119 57.0861 76.1341 58.0229 76.6155 59.6479L78.5331 59.0798ZM75.0456 65.3865C77.7226 64.5928 79.2994 61.7834 78.5365 59.0912L76.6122 59.6364C77.072 61.2591 76.12 62.9819 74.4771 63.469L75.0456 65.3865ZM89.7211 77.361C89.3655 77.9926 88.7825 78.4568 88.0689 78.6672L88.6343 80.5856C89.8407 80.23 90.8493 79.4337 91.4638 78.3423L89.7211 77.361ZM89.9552 75.2742C90.1646 75.9858 90.0799 76.7218 89.7204 77.3622L91.4644 78.3411C92.0877 77.2308 92.2354 75.9382 91.8739 74.7096L89.9552 75.2742ZM86.5318 73.4422C88.0009 73.0144 89.5321 73.8501 89.9559 75.2767L91.8731 74.7071C91.1298 72.2053 88.4775 70.7926 85.9727 71.5219L86.5318 73.4422ZM84.635 76.8292C84.2222 75.398 85.0596 73.8716 86.5323 73.442L85.9722 71.522C83.461 72.2546 81.9894 74.8738 82.7134 77.3836L84.635 76.8292ZM85.9213 78.4605C85.2803 78.1086 84.8292 77.5365 84.6385 76.8418L82.7098 77.371C83.0447 78.5912 83.8466 79.6031 84.9588 80.2137L85.9213 78.4605ZM87.24 78.7944C86.7795 78.7944 86.323 78.6797 85.9191 78.4593L84.9611 80.2149C85.6636 80.5983 86.4501 80.7944 87.24 80.7944V78.7944ZM88.0554 78.6712C87.7902 78.7535 87.515 78.7944 87.24 78.7944V80.7944C87.7129 80.7944 88.188 80.7241 88.6478 80.5815L88.0554 78.6712Z" fill="#E3E4E5"/>
<path d="M45.9756 96.1034C55.3671 90.1603 64.6688 73.886 60.0824 71.0022C55.4732 68.1033 46.5048 100.009 52.6867 105.279C58.8685 110.549 73.1951 87.5633 68.812 83.6412C65.8739 81.0126 58.5161 98.2937 62.4192 110.526" stroke="#E3E4E5" stroke-width="2" stroke-linecap="round" stroke-linejoin="round"/>
<path d="M78.0098 84.2949L81.755 90.3934H108.103V84.2949" stroke="#E3E4E5" stroke-width="2" stroke-linecap="round" stroke-linejoin="round"/>
<path d="M29.9073 57.8663L28.7641 53.5097L25.7717 42.1035C25.7717 42.1035 21.5794 46.263 17.4097 50.3973C13.2161 54.5581 9.02246 58.6936 9.02246 58.6936L20.4009 61.8035L26.4627 63.4645" stroke="#E3E4E5" stroke-width="2" stroke-linecap="round" stroke-linejoin="round"/>
<circle cx="29.5574" cy="21.2449" r="6.77424" fill="#E3E4E5" stroke="#E3E4E5" stroke-width="2"/>
<path fill-rule="evenodd" clip-rule="evenodd" d="M136.037 157.433C137.272 157.63 138.532 157.758 139.813 157.808C156.307 158.461 170.358 146.411 172.528 130.379L143.399 129.225L136.037 157.433Z" stroke="#E3E4E5" stroke-width="2" stroke-linecap="round" stroke-linejoin="round"/>
<path d="M170.02 139.13C167.361 134.877 152.711 148.472 154.833 151.407C156.702 153.983 165.095 138.446 159.527 136.368C152.713 133.834 136.055 150.161 140.168 153.235C147.771 158.885 162.726 127.021 147.438 134.208C143.982 136.207 140.386 140.768 140.386 140.768" stroke="#E3E4E5" stroke-width="2" stroke-linecap="round" stroke-linejoin="round"/>
<path d="M172.527 130.379L176.013 135.677C173.843 151.708 159.792 163.76 143.298 163.106C142.017 163.055 140.758 162.926 139.522 162.731L136.036 157.433" stroke="#E3E4E5" stroke-width="2" stroke-linecap="round" stroke-linejoin="round"/>
<path d="M112.159 115.301C110.975 115.701 109.8 116.174 108.643 116.723C93.7365 123.814 86.9004 141.017 92.4342 156.219L118.759 143.696L112.159 115.301Z" fill="#E3E4E5" stroke="#E3E4E5" stroke-width="2" stroke-linecap="round" stroke-linejoin="round"/>
<path fill-rule="evenodd" clip-rule="evenodd" d="M112.159 115.301L118.759 120.166L125.117 146.178L118.759 143.696L112.159 115.301Z" stroke="#E3E4E5" stroke-width="2" stroke-linecap="round" stroke-linejoin="round"/>
<path d="M92.4346 156.222L98.5633 158.752L125.117 146.18" stroke="#E3E4E5" stroke-width="2" stroke-linecap="round" stroke-linejoin="round"/>
<path fill-rule="evenodd" clip-rule="evenodd" d="M36.8057 169.866C38.0019 170.232 39.2309 170.532 40.4928 170.76C56.7368 173.692 72.3227 163.704 76.6919 148.127L48.0034 142.949L36.8057 169.866Z" stroke="#E3E4E5" stroke-width="2" stroke-linecap="round" stroke-linejoin="round"/>
<path d="M76.6917 148.125L71.264 142.492L44.4045 137.027L33.1865 162.996L36.8054 169.864" stroke="#E3E4E5" stroke-width="2" stroke-linecap="round" stroke-linejoin="round"/>
<path d="M44.4043 137.027L48.003 142.948" stroke="#E3E4E5" stroke-width="2" stroke-linecap="round" stroke-linejoin="round"/>
</svg>
